<?xml version="1.0" standalone="no"?><!DOCTYPE svg PUBLIC "-//W3C//DTD SVG 1.1//EN" "http://www.w3.org/Graphics/SVG/1.1/DTD/svg11.dtd"><svg t="1593669366176" class="icon" viewBox="0 0 1024 1024" version="1.1" xmlns="http://www.w3.org/2000/svg" p-id="9453" width="32" height="32" xmlns:xlink="http://www.w3.org/1999/xlink"><defs><style type="text/css"></style></defs><path d="M839.35 516.36c0-55.77 39.95-102.21 92.8-112.25 12.34-2.35 21.46-12.74 21.46-25.3v-33.08c0-78.77-64.44-143.21-143.21-143.21H212.26c-78.77 0-143.21 64.44-143.21 143.21v23.98c0 12.55 9.11 22.94 21.44 25.3 52.8 10.08 92.7 56.48 92.7 112.22s-39.9 102.14-92.7 112.22c-12.33 2.35-21.44 12.74-21.44 25.3v55.68c0 78.77 64.44 143.21 143.21 143.21H810.4c78.77 0 143.21-64.44 143.21-143.21v-46.5c0-12.56-9.12-22.95-21.46-25.3-52.84-10.07-92.8-56.5-92.8-112.27z" fill="#F7B52C" p-id="9454"></path><path d="M342.25 495.81c-19.77 0-35.8-16.03-35.8-35.8V352.26c0-19.77 16.03-35.8 35.8-35.8s35.8 16.03 35.8 35.8V460c0.01 19.78-16.02 35.81-35.8 35.81zM342.25 729.68c-19.77 0-35.8-16.03-35.8-35.8V590.19c0-19.77 16.03-35.8 35.8-35.8s35.8 16.03 35.8 35.8v103.69c0.01 19.77-16.02 35.8-35.8 35.8z" fill="#FFFFFF" p-id="9455"></path></svg>