<?xml version="1.0" standalone="no"?><!DOCTYPE svg PUBLIC "-//W3C//DTD SVG 1.1//EN" "http://www.w3.org/Graphics/SVG/1.1/DTD/svg11.dtd"><svg t="1593668861808" class="icon" viewBox="0 0 1024 1024" version="1.1" xmlns="http://www.w3.org/2000/svg" p-id="9191" width="32" height="32" xmlns:xlink="http://www.w3.org/1999/xlink"><defs><style type="text/css"></style></defs><path d="M339.2 467.2H128c-70.4 0-128-57.6-128-128V128C0 57.6 57.6 0 128 0h211.2c70.4 0 128 57.6 128 128v211.2c0 70.4-57.6 128-128 128zM684.8 467.2H896c70.4 0 128-57.6 128-128V128c0-70.4-57.6-128-128-128h-211.2c-70.4 0-128 57.6-128 128v211.2c0 70.4 57.6 128 128 128zM339.2 556.8H128c-70.4 0-128 57.6-128 128V896c0 70.4 57.6 128 128 128h211.2c70.4 0 128-57.6 128-128v-211.2c0-70.4-57.6-128-128-128z" fill="#FF9300" p-id="9192"></path><path d="M787.2 787.2m-236.8 0a236.8 236.8 0 1 0 473.6 0 236.8 236.8 0 1 0-473.6 0Z" fill="#FF9300" p-id="9193"></path></svg>